<svg xmlns="http://www.w3.org/2000/svg" viewBox="0 0 612.71 396.71"><defs><style>.cls-1{fill:#231f20;stroke:#231f20;stroke-width:0.71px;}.cls-1,.cls-5{stroke-miterlimit:10;}.cls-2{font-size:97.66px;font-family:FuturaStd-Heavy, Futura Std;font-weight:800;}.cls-2,.cls-3{fill:#fff;}.cls-4{fill:#339dd7;}.cls-5{fill:none;stroke:#fff;}</style></defs><g id="Layer_2" data-name="Layer 2"><g id="Layer_1-2" data-name="Layer 1"><rect class="cls-1" x="0.35" y="0.35" width="612" height="396"/><text class="cls-2" transform="translate(101.34 214.72)">Play</text><text class="cls-2" transform="translate(304.06 214.72)">B</text><path class="cls-3" d="M459.22,141.08h17l11.72,22.85,10.74-22.85h17l-20.41,34.67,22.65,39h-16.7l-14.84-27-14.06,27h-16.8l23.54-39Z"/><rect class="cls-4" x="381.77" y="154.52" width="45.96" height="45"/><rect class="cls-5" x="363.73" y="141.08" width="18.04" height="73.63"/><rect class="cls-5" x="427.73" y="141.08" width="18.04" height="73.63"/><polygon class="cls-3" points="397.95 167.05 406.58 172.04 415.21 177.02 406.58 182.01 397.95 186.99 397.95 177.02 397.95 167.05"/><rect class="cls-3" x="369.9" y="145.76" width="5.45" height="5.45"/><rect class="cls-3" x="369.9" y="165.37" width="5.45" height="5.45"/><rect class="cls-3" x="369.9" y="184.98" width="5.45" height="5.45"/><rect class="cls-3" x="369.9" y="204.6" width="5.45" height="5.45"/><rect class="cls-3" x="434.15" y="145.76" width="5.45" height="5.45"/><rect class="cls-3" x="434.15" y="165.37" width="5.45" height="5.45"/><rect class="cls-3" x="434.15" y="184.98" width="5.45" height="5.45"/><rect class="cls-3" x="434.15" y="204.6" width="5.45" height="5.45"/></g></g></svg>